<svg width="1388" height="1275" viewBox="0 0 1388 1275" fill="none" xmlns="http://www.w3.org/2000/svg">
<g filter="url(#filter0_f_7_11707)">
<path d="M696.832 694.189H925.115L793.88 886.904L947.322 889.809L625.257 1271L703.294 980.371H560.432L696.832 694.189Z" fill="url(#paint0_linear_7_11707)"/>
<path d="M1049.58 897.022H1149.8L1092.19 981.636L1159.55 982.91L1018.15 1150.27L1052.41 1022.67H989.701L1049.58 897.022Z" fill="url(#paint1_linear_7_11707)"/>
<path d="M355.389 982.595H455.617L398 1067.21L465.369 1068.48L323.963 1235.85L358.226 1108.25H295.515L355.389 982.595Z" fill="url(#paint2_linear_7_11707)"/>
<path d="M351.197 19.1927C374.705 19.1868 398.154 21.5621 421.183 26.2821C465.629 35.4363 507.828 53.2838 545.355 78.7988C597.345 114.037 638.883 162.629 665.604 219.469C692.324 276.308 703.24 339.296 697.205 401.812C691.169 464.328 668.405 524.064 631.304 574.742C594.204 625.42 544.137 665.168 486.366 689.81C465.365 698.733 443.529 705.547 421.179 710.149C372.717 719.976 322.717 719.363 274.51 708.352C226.304 697.34 180.996 676.183 141.607 646.289C102.218 616.395 69.6508 578.451 46.0752 534.984C22.4997 491.518 8.45701 443.526 4.88259 394.207C42.8834 403.101 82.3578 403.673 120.6 395.884C154.917 388.856 187.515 375.14 216.532 355.517C259.667 326.398 293.43 285.393 313.732 237.472C320.591 221.243 325.827 204.373 329.362 187.112C336.898 150.127 336.619 111.974 328.544 75.1032C324.482 56.6663 318.475 38.7125 310.623 21.5436C324.091 19.9763 337.639 19.1914 351.197 19.1927V19.1927Z" fill="#713FFD"/>
<g filter="url(#filter1_f_7_11707)">
<path d="M586.185 127.088C508.233 56.8993 406.114 43.2328 358.096 96.5624C310.078 149.892 334.344 250.023 412.296 320.211C490.248 390.4 592.367 404.066 640.385 350.736C688.403 297.407 664.137 197.276 586.185 127.088Z" fill="#A586FC"/>
</g>
<g filter="url(#filter2_d_7_11707)">
<path d="M1045.64 942.356H403.664C341.387 942.309 281.542 918.172 236.659 875C191.775 831.827 165.332 772.965 162.866 710.737C160.399 648.509 182.1 587.739 223.426 541.15C264.751 494.56 322.497 465.762 384.575 460.786C393.428 398.275 421.656 340.114 465.287 294.483C508.919 248.852 565.759 218.049 627.81 206.406C689.862 194.764 754.001 202.869 811.206 229.581C868.411 256.292 915.802 300.266 946.711 355.316C1003.4 335.692 1064.66 333.399 1122.66 348.73C1180.66 364.061 1232.78 396.322 1272.37 441.398C1311.96 486.473 1337.22 542.32 1344.94 601.814C1352.66 661.308 1342.49 721.754 1315.71 775.44C1300 823.944 1269.32 866.223 1228.09 896.211C1186.85 926.199 1137.18 942.353 1086.19 942.356H1045.64Z" fill="url(#paint3_linear_7_11707)"/>
<path d="M1086.19 939.002C1112.08 939.002 1137.53 934.868 1161.84 926.716C1185.35 918.832 1207.43 907.328 1227.45 892.523C1247.24 877.888 1264.58 860.357 1279.01 840.416C1293.61 820.228 1304.89 798.02 1312.52 774.408L1312.6 774.166L1312.71 773.939C1322.86 753.656 1330.68 732.2 1335.94 710.167C1341.36 687.496 1344.11 664.068 1344.11 640.535C1344.11 620.283 1342.07 600.044 1338.05 580.381C1334.12 561.219 1328.27 542.371 1320.66 524.36C1313.18 506.676 1303.92 489.619 1293.14 473.663C1282.46 457.858 1270.2 442.995 1256.69 429.488C1243.18 415.981 1228.32 403.718 1212.52 393.041C1196.56 382.261 1179.5 373.003 1161.82 365.523C1143.81 357.905 1124.96 352.054 1105.8 348.133C1086.13 344.109 1065.9 342.069 1045.64 342.069C1012.11 342.069 979.193 347.588 947.809 358.472L945.161 359.39L943.787 356.947C918.247 311.534 881.097 273.395 836.353 246.655C813.724 233.131 789.414 222.681 764.096 215.593C737.977 208.282 710.846 204.575 683.459 204.575C646.621 204.575 610.661 211.205 576.579 224.28C543.654 236.912 513.45 255.159 486.806 278.514C460.315 301.735 438.332 329.133 421.466 359.948C404.185 391.519 392.891 425.598 387.896 461.239L387.523 463.906L384.837 464.117C354.795 466.468 325.891 474.378 298.928 487.626C272.729 500.498 249.334 517.909 229.393 539.375C188.419 583.482 165.853 640.95 165.853 701.192C165.853 733.297 172.14 764.441 184.54 793.757C190.5 807.847 197.877 821.438 206.465 834.151C214.973 846.744 224.744 858.586 235.506 869.349C246.268 880.111 258.111 889.882 270.704 898.389C283.417 906.978 297.007 914.355 311.098 920.315C340.414 932.715 371.557 939.002 403.663 939.002H1045.64H1086.19ZM1086.19 942.355H1045.64H403.663C270.473 942.355 162.5 834.382 162.5 701.192C162.5 574.424 260.305 470.501 384.575 460.773C405.131 314.093 531.112 201.221 683.459 201.221C796.481 201.221 894.991 263.34 946.71 355.303C977.704 344.554 1010.99 338.715 1045.64 338.715C1212.33 338.715 1347.46 473.846 1347.46 640.535C1347.46 689.025 1336.03 734.841 1315.71 775.44C1284.4 872.297 1193.47 942.355 1086.19 942.355Z" fill="white" fill-opacity="0.5"/>
</g>
</g>
<defs>
<filter id="filter0_f_7_11707" x="0.882568" y="15.1929" width="1350.58" height="1259.81" filterUnits="userSpaceOnUse" color-interpolation-filters="sRGB">
<feFlood flood-opacity="0" result="BackgroundImageFix"/>
<feBlend mode="normal" in="SourceGraphic" in2="BackgroundImageFix" result="shape"/>
<feGaussianBlur stdDeviation="2" result="effect1_foregroundBlur_7_11707"/>
</filter>
<filter id="filter1_f_7_11707" x="313.443" y="44.0308" width="371.595" height="359.237" filterUnits="userSpaceOnUse" color-interpolation-filters="sRGB">
<feFlood flood-opacity="0" result="BackgroundImageFix"/>
<feBlend mode="normal" in="SourceGraphic" in2="BackgroundImageFix" result="shape"/>
<feGaussianBlur stdDeviation="10" result="effect1_foregroundBlur_7_11707"/>
</filter>
<filter id="filter2_d_7_11707" x="142.5" y="173.221" width="1244.96" height="801.135" filterUnits="userSpaceOnUse" color-interpolation-filters="sRGB">
<feFlood flood-opacity="0" result="BackgroundImageFix"/>
<feColorMatrix in="SourceAlpha" type="matrix" values="0 0 0 0 0 0 0 0 0 0 0 0 0 0 0 0 0 0 127 0" result="hardAlpha"/>
<feOffset dx="10" dy="2"/>
<feGaussianBlur stdDeviation="15"/>
<feColorMatrix type="matrix" values="0 0 0 0 0.258824 0 0 0 0 0.627451 0 0 0 0 0.941176 0 0 0 0.596 0"/>
<feBlend mode="normal" in2="BackgroundImageFix" result="effect1_dropShadow_7_11707"/>
<feBlend mode="normal" in="SourceGraphic" in2="effect1_dropShadow_7_11707" result="shape"/>
</filter>
<linearGradient id="paint0_linear_7_11707" x1="718.283" y1="982.595" x2="537.565" y2="916.342" gradientUnits="userSpaceOnUse">
<stop stop-color="#FFD100"/>
<stop offset="1" stop-color="#FFF0AA"/>
</linearGradient>
<linearGradient id="paint1_linear_7_11707" x1="1059" y1="1023.65" x2="979.66" y2="994.562" gradientUnits="userSpaceOnUse">
<stop stop-color="#FFD100"/>
<stop offset="1" stop-color="#FFF0AA"/>
</linearGradient>
<linearGradient id="paint2_linear_7_11707" x1="364.816" y1="1109.22" x2="285.474" y2="1080.13" gradientUnits="userSpaceOnUse">
<stop stop-color="#FFD100"/>
<stop offset="1" stop-color="#FFF0AA"/>
</linearGradient>
<linearGradient id="paint3_linear_7_11707" x1="755.065" y1="201.229" x2="1099.28" y2="1033.46" gradientUnits="userSpaceOnUse">
<stop stop-color="white" stop-opacity="0.604"/>
<stop offset="1" stop-color="white" stop-opacity="0.2"/>
</linearGradient>
</defs>
</svg>
