<svg width="5351" height="4291" viewBox="0 0 5351 4291" fill="none" xmlns="http://www.w3.org/2000/svg">
<g filter="url(#filter0_f_103_2)">
<path d="M2748.72 3218.22C2748.72 3218.22 3585.85 3263.46 3957.09 3155.71C4328.33 3047.95 4327.81 2488.42 3957.09 2350.43C3586.37 2212.43 3459.63 2705.51 3459.63 2705.51" stroke="#D0D0D0" stroke-width="16" stroke-linecap="round"/>
<path d="M1308.74 3822.63C1308.74 3822.63 2567.05 3708.95 3121.79 3822.63C3676.52 3936.32 3499.89 4262.48 3236.99 4277.38C2974.08 4292.28 2731.49 4119.54 2731.49 4119.54" stroke="#D0D0D0" stroke-width="16" stroke-linecap="round"/>
<path d="M3986.96 3821.71H4487.24" stroke="#D0D0D0" stroke-width="16" stroke-linecap="round"/>
</g>
<g filter="url(#filter1_f_103_2)">
<path d="M1388.7 2456.9C1978.84 2456.9 2457.23 1978.5 2457.23 1388.37C2457.23 798.231 1978.84 319.833 1388.7 319.833C798.567 319.833 320.169 798.231 320.169 1388.37C320.169 1978.5 798.567 2456.9 1388.7 2456.9Z" fill="#FA9E42"/>
</g>
<g filter="url(#filter2_f_103_2)">
<path d="M1388.7 2704.04C2115.33 2704.04 2704.38 2114.99 2704.38 1388.37C2704.38 661.738 2115.33 72.6895 1388.7 72.6895C662.074 72.6895 73.0251 661.738 73.0251 1388.37C73.0251 2114.99 662.074 2704.04 1388.7 2704.04Z" stroke="#FA9E42" stroke-width="10" stroke-linecap="round" stroke-dasharray="1 66"/>
</g>
<g filter="url(#filter3_f_103_2)">
<path d="M1274.01 1175.01C1648.25 976.232 1859.95 642.478 1746.85 429.548C1633.75 216.617 1238.69 205.143 864.449 403.919C490.208 602.694 278.509 936.448 391.605 1149.38C504.702 1362.31 899.767 1373.78 1274.01 1175.01Z" fill="#F8E36F"/>
</g>
<g filter="url(#filter4_d_103_2)">
<g filter="url(#filter5_df_103_2)">
<path d="M3628.44 3500.21C3600.33 3502.47 3571.95 3503.61 3543.29 3503.62H1543.98C1406.36 3504.14 1270 3477.48 1142.71 3425.17C1015.42 3372.86 899.705 3295.93 802.211 3198.8C704.718 3101.67 627.361 2986.25 574.578 2859.15C521.794 2732.06 494.623 2595.79 494.623 2458.17C494.623 2320.55 521.794 2184.29 574.578 2057.19C627.361 1930.09 704.718 1814.67 802.211 1717.54C899.705 1620.41 1015.42 1543.48 1142.71 1491.18C1270 1438.87 1406.36 1412.2 1543.98 1412.72H2289.41C2531.09 880.994 3087.71 508.825 3735.71 508.825C4605.47 508.825 5310.55 1179.24 5310.55 2006.23C5310.55 2833.21 4605.47 3503.62 3735.71 3503.62C3699.66 3503.62 3663.9 3502.49 3628.44 3500.21Z" fill="url(#paint0_linear_103_2)"/>
<path d="M3735.71 3489.09C3841.63 3489.09 3947.48 3478.94 4050.32 3458.93C4150.53 3439.44 4249.1 3410.34 4343.28 3372.46C4435.75 3335.28 4524.94 3289.25 4608.36 3235.66C4690.98 3182.59 4768.67 3121.64 4839.28 3054.51C4909.87 2987.39 4973.95 2913.54 5029.75 2835.01C5086.07 2755.75 5134.44 2671.01 5173.52 2583.17C5213.31 2493.71 5243.87 2400.1 5264.35 2304.94C5285.37 2207.29 5296.02 2106.79 5296.02 2006.22C5296.02 1905.65 5285.37 1805.15 5264.35 1707.5C5243.87 1612.34 5213.31 1518.73 5173.52 1429.28C5134.44 1341.43 5086.07 1256.7 5029.75 1177.44C4973.95 1098.91 4909.87 1025.06 4839.28 957.94C4768.67 890.811 4690.98 829.863 4608.36 776.791C4524.94 723.202 4435.75 677.175 4343.28 639.987C4249.1 602.108 4150.53 573.015 4050.32 553.518C3947.48 533.509 3841.63 523.363 3735.71 523.363C3425.02 523.363 3124.97 609.897 2867.99 773.611C2744.12 852.526 2632.81 947.78 2537.15 1056.73C2440.89 1166.36 2361.99 1288.16 2302.64 1418.73L2298.77 1427.25H2289.41H1543.98C1404.8 1427.25 1269.79 1454.51 1142.71 1508.26C1081.62 1534.1 1022.71 1566.07 967.595 1603.31C913.003 1640.19 861.667 1682.55 815.012 1729.2C768.357 1775.86 726 1827.19 689.118 1881.78C651.886 1936.9 619.907 1995.81 594.071 2056.89C540.317 2183.98 513.062 2318.99 513.062 2458.17C513.062 2597.35 540.317 2732.36 594.071 2859.44C619.907 2920.53 651.886 2979.44 689.118 3034.55C726 3089.15 768.357 3140.48 815.012 3187.14C861.667 3233.79 913.003 3276.15 967.595 3313.03C1022.71 3350.26 1081.62 3382.24 1142.71 3408.08C1269.79 3461.83 1404.8 3489.09 1543.98 3489.09H3543.29C3571.25 3489.09 3599.5 3487.95 3627.28 3485.72L3628.32 3485.63L3629.37 3485.7C3664.54 3487.95 3700.32 3489.09 3735.71 3489.09ZM3735.71 3503.63C3699.66 3503.63 3663.89 3502.47 3628.44 3500.21C3600.38 3502.47 3571.94 3503.63 3543.29 3503.63H1543.98C966.593 3503.63 498.524 3035.56 498.524 2458.17C498.524 1880.78 966.593 1412.71 1543.98 1412.71H2289.41C2531.1 880.928 3087.68 508.825 3735.71 508.825C4605.47 508.825 5310.56 1179.24 5310.56 2006.22C5310.56 2833.21 4605.47 3503.63 3735.71 3503.63Z" fill="white" fill-opacity="0.5"/>
</g>
</g>
<defs>
<filter id="filter0_f_103_2" x="1296.74" y="2314.06" width="3202.5" height="1976.23" filterUnits="userSpaceOnUse" color-interpolation-filters="sRGB">
<feFlood flood-opacity="0" result="BackgroundImageFix"/>
<feBlend mode="normal" in="SourceGraphic" in2="BackgroundImageFix" result="shape"/>
<feGaussianBlur stdDeviation="2" result="effect1_foregroundBlur_103_2"/>
</filter>
<filter id="filter1_f_103_2" x="316.169" y="315.833" width="2145.07" height="2145.07" filterUnits="userSpaceOnUse" color-interpolation-filters="sRGB">
<feFlood flood-opacity="0" result="BackgroundImageFix"/>
<feBlend mode="normal" in="SourceGraphic" in2="BackgroundImageFix" result="shape"/>
<feGaussianBlur stdDeviation="2" result="effect1_foregroundBlur_103_2"/>
</filter>
<filter id="filter2_f_103_2" x="66.0251" y="65.6895" width="2645.35" height="2645.35" filterUnits="userSpaceOnUse" color-interpolation-filters="sRGB">
<feFlood flood-opacity="0" result="BackgroundImageFix"/>
<feBlend mode="normal" in="SourceGraphic" in2="BackgroundImageFix" result="shape"/>
<feGaussianBlur stdDeviation="1" result="effect1_foregroundBlur_103_2"/>
</filter>
<filter id="filter3_f_103_2" x="341.152" y="242.03" width="1456.15" height="1094.87" filterUnits="userSpaceOnUse" color-interpolation-filters="sRGB">
<feFlood flood-opacity="0" result="BackgroundImageFix"/>
<feBlend mode="normal" in="SourceGraphic" in2="BackgroundImageFix" result="shape"/>
<feGaussianBlur stdDeviation="10" result="effect1_foregroundBlur_103_2"/>
</filter>
<filter id="filter4_d_103_2" x="474.623" y="480.825" width="4875.94" height="3054.81" filterUnits="userSpaceOnUse" color-interpolation-filters="sRGB">
<feFlood flood-opacity="0" result="BackgroundImageFix"/>
<feColorMatrix in="SourceAlpha" type="matrix" values="0 0 0 0 0 0 0 0 0 0 0 0 0 0 0 0 0 0 127 0" result="hardAlpha"/>
<feOffset dx="10" dy="2"/>
<feGaussianBlur stdDeviation="15"/>
<feColorMatrix type="matrix" values="0 0 0 0 0.258824 0 0 0 0 0.627451 0 0 0 0 0.941176 0 0 0 0.596 0"/>
<feBlend mode="normal" in2="BackgroundImageFix" result="effect1_dropShadow_103_2"/>
<feBlend mode="normal" in="SourceGraphic" in2="effect1_dropShadow_103_2" result="shape"/>
</filter>
<filter id="filter5_df_103_2" x="490.623" y="504.825" width="4823.94" height="3006.81" filterUnits="userSpaceOnUse" color-interpolation-filters="sRGB">
<feFlood flood-opacity="0" result="BackgroundImageFix"/>
<feColorMatrix in="SourceAlpha" type="matrix" values="0 0 0 0 0 0 0 0 0 0 0 0 0 0 0 0 0 0 127 0" result="hardAlpha"/>
<feOffset dy="4"/>
<feGaussianBlur stdDeviation="2"/>
<feColorMatrix type="matrix" values="0 0 0 0 0 0 0 0 0 0 0 0 0 0 0 0 0 0 0.25 0"/>
<feBlend mode="normal" in2="BackgroundImageFix" result="effect1_dropShadow_103_2"/>
<feBlend mode="normal" in="SourceGraphic" in2="effect1_dropShadow_103_2" result="shape"/>
<feGaussianBlur stdDeviation="2" result="effect2_foregroundBlur_103_2"/>
</filter>
<linearGradient id="paint0_linear_103_2" x1="2445.08" y1="886.171" x2="3405.19" y2="3665.98" gradientUnits="userSpaceOnUse">
<stop stop-color="white" stop-opacity="0.596"/>
<stop offset="1" stop-color="#F7F7F7" stop-opacity="0.204"/>
</linearGradient>
</defs>
</svg>
