<svg width="1684" height="1485" viewBox="0 0 1684 1485" fill="none" xmlns="http://www.w3.org/2000/svg">
<g filter="url(#filter0_f_7_11259)">
<path d="M465.627 686.452C468.916 686.535 502.289 802.418 502.289 847.449C502.289 892.48 485.874 928.99 465.627 928.99C445.381 928.99 428.965 892.484 428.965 847.454C428.965 802.423 462.339 686.374 465.627 686.452Z" fill="#42A0F0"/>
<path d="M447.912 861.229C453.269 862.867 460.323 855.321 463.67 844.376C467.016 833.43 465.387 823.23 460.031 821.592C454.674 819.954 447.619 827.5 444.273 838.445C440.927 849.391 442.556 859.591 447.912 861.229Z" fill="white"/>
<path d="M720.043 686.452C723.332 686.535 756.705 802.418 756.705 847.449C756.705 892.48 740.29 928.99 720.043 928.99C699.797 928.99 683.381 892.484 683.381 847.454C683.381 802.423 716.755 686.374 720.043 686.452Z" fill="#42A0F0"/>
<path d="M702.328 861.229C707.685 862.867 714.74 855.321 718.086 844.376C721.432 833.43 719.803 823.23 714.447 821.592C709.09 819.954 702.035 827.5 698.689 838.445C695.343 849.391 696.972 859.591 702.328 861.229Z" fill="white"/>
<path d="M992.997 686.452C996.286 686.535 1029.66 802.418 1029.66 847.449C1029.66 892.48 1013.24 928.99 992.997 928.99C972.751 928.99 956.335 892.484 956.335 847.454C956.335 802.423 989.709 686.374 992.997 686.452Z" fill="#42A0F0"/>
<path d="M975.282 861.229C980.639 862.867 987.693 855.321 991.04 844.376C994.386 833.43 992.757 823.23 987.401 821.592C982.044 819.954 974.989 827.5 971.643 838.445C968.297 849.391 969.926 859.591 975.282 861.229Z" fill="white"/>
<path d="M1245.1 672.673C1248.39 672.755 1281.76 788.639 1281.76 833.67C1281.76 878.701 1265.34 915.211 1245.1 915.211C1224.85 915.211 1208.44 878.705 1208.44 833.674C1208.44 788.644 1241.81 672.595 1245.1 672.673Z" fill="#42A0F0"/>
<path d="M1227.38 847.45C1232.74 849.087 1239.79 841.542 1243.14 830.596C1246.49 819.651 1244.86 809.45 1239.5 807.813C1234.15 806.175 1227.09 813.721 1223.74 824.666C1220.4 835.612 1222.03 845.812 1227.38 847.45Z" fill="white"/>
<path d="M848.494 994.189C851.783 994.272 885.156 1110.16 885.156 1155.19C885.156 1200.22 868.74 1236.73 848.494 1236.73C828.248 1236.73 811.832 1200.22 811.832 1155.19C811.832 1110.16 845.205 994.111 848.494 994.189Z" fill="#42A0F0"/>
<path d="M830.779 1168.97C836.135 1170.6 843.19 1163.06 846.536 1152.11C849.883 1141.17 848.253 1130.97 842.897 1129.33C837.541 1127.69 830.486 1135.24 827.14 1146.18C823.793 1157.13 825.423 1167.33 830.779 1168.97Z" fill="white"/>
<path d="M1121.44 994.189C1124.73 994.272 1158.11 1110.16 1158.11 1155.19C1158.11 1200.22 1141.69 1236.73 1121.44 1236.73C1101.2 1236.73 1084.78 1200.22 1084.78 1155.19C1084.78 1110.16 1118.15 994.111 1121.44 994.189Z" fill="#42A0F0"/>
<path d="M1103.73 1168.97C1109.08 1170.6 1116.14 1163.06 1119.49 1152.11C1122.83 1141.17 1121.2 1130.97 1115.85 1129.33C1110.49 1127.69 1103.44 1135.24 1100.09 1146.18C1096.74 1157.13 1098.37 1167.33 1103.73 1168.97Z" fill="white"/>
<path d="M1410.45 994.189C1413.74 994.272 1447.11 1110.16 1447.11 1155.19C1447.11 1200.22 1430.7 1236.73 1410.45 1236.73C1390.2 1236.73 1373.79 1200.22 1373.79 1155.19C1373.79 1110.16 1407.16 994.111 1410.45 994.189Z" fill="#42A0F0"/>
<path d="M1392.74 1168.97C1398.09 1170.6 1405.15 1163.06 1408.49 1152.11C1411.84 1141.17 1410.21 1130.97 1404.85 1129.33C1399.5 1127.69 1392.44 1135.24 1389.1 1146.18C1385.75 1157.13 1387.38 1167.33 1392.74 1168.97Z" fill="white"/>
<path d="M575.545 1007.97C578.833 1008.05 612.207 1123.94 612.207 1168.97C612.207 1214 595.791 1250.51 575.545 1250.51C555.298 1250.51 538.883 1214 538.883 1168.97C538.883 1123.94 572.256 1007.89 575.545 1007.97Z" fill="#42A0F0"/>
<path d="M557.83 1182.75C563.186 1184.38 570.241 1176.84 573.587 1165.89C576.934 1154.95 575.304 1144.75 569.948 1143.11C564.592 1141.47 557.537 1149.02 554.191 1159.96C550.844 1170.91 552.474 1181.11 557.83 1182.75Z" fill="white"/>
<path d="M318.648 994.189C321.937 994.272 355.31 1110.16 355.31 1155.19C355.31 1200.22 338.895 1236.73 318.648 1236.73C298.402 1236.73 281.986 1200.22 281.986 1155.19C281.986 1110.16 315.36 994.111 318.648 994.189Z" fill="#42A0F0"/>
<path d="M300.933 1168.97C306.29 1170.6 313.344 1163.06 316.691 1152.11C320.037 1141.17 318.408 1130.97 313.052 1129.33C307.695 1127.69 300.64 1135.24 297.294 1146.18C293.948 1157.13 295.577 1167.33 300.933 1168.97Z" fill="white"/>
<path d="M465.627 1237.62C468.916 1237.71 502.289 1353.59 502.289 1398.62C502.289 1443.65 485.874 1480.16 465.627 1480.16C445.381 1480.16 428.965 1443.66 428.965 1398.63C428.965 1353.59 462.339 1237.55 465.627 1237.62Z" fill="#42A0F0"/>
<path d="M447.912 1412.4C453.269 1414.04 460.323 1406.49 463.67 1395.55C467.016 1384.6 465.387 1374.4 460.031 1372.76C454.674 1371.13 447.619 1378.67 444.273 1389.62C440.927 1400.56 442.556 1410.76 447.912 1412.4Z" fill="white"/>
<path d="M720.043 1237.62C723.332 1237.71 756.705 1353.59 756.705 1398.62C756.705 1443.65 740.29 1480.16 720.043 1480.16C699.797 1480.16 683.381 1443.66 683.381 1398.63C683.381 1353.59 716.755 1237.55 720.043 1237.62Z" fill="#42A0F0"/>
<path d="M702.328 1412.4C707.685 1414.04 714.74 1406.49 718.086 1395.55C721.432 1384.6 719.803 1374.4 714.447 1372.76C709.09 1371.13 702.035 1378.67 698.689 1389.62C695.343 1400.56 696.972 1410.76 702.328 1412.4Z" fill="white"/>
<path d="M992.997 1237.62C996.286 1237.71 1029.66 1353.59 1029.66 1398.62C1029.66 1443.65 1013.24 1480.16 992.997 1480.16C972.751 1480.16 956.335 1443.66 956.335 1398.63C956.335 1353.59 989.709 1237.55 992.997 1237.62Z" fill="#42A0F0"/>
<path d="M975.282 1412.4C980.639 1414.04 987.693 1406.49 991.04 1395.55C994.386 1384.6 992.757 1374.4 987.401 1372.76C982.044 1371.13 974.989 1378.67 971.643 1389.62C968.297 1400.56 969.926 1410.76 975.282 1412.4Z" fill="white"/>
<path d="M1245.1 1237.62C1248.39 1237.71 1281.76 1353.59 1281.76 1398.62C1281.76 1443.65 1265.34 1480.16 1245.1 1480.16C1224.85 1480.16 1208.44 1443.66 1208.44 1398.63C1208.44 1353.59 1241.81 1237.55 1245.1 1237.62Z" fill="#42A0F0"/>
<path d="M1227.38 1412.4C1232.74 1414.04 1239.79 1406.49 1243.14 1395.55C1246.49 1384.6 1244.86 1374.4 1239.5 1372.76C1234.15 1371.13 1227.09 1378.67 1223.74 1389.62C1220.4 1400.56 1222.03 1410.76 1227.38 1412.4Z" fill="white"/>
<g filter="url(#filter1_d_7_11259)">
<path d="M1229.77 1043.07H350.501C265.206 1043.01 183.242 1009.95 121.768 950.821C60.2947 891.691 24.0779 811.073 20.6996 725.844C17.3213 640.615 47.0435 557.383 103.644 493.573C160.244 429.763 239.335 390.321 324.358 383.505C336.482 297.89 375.144 218.23 434.903 155.733C494.662 93.2366 572.51 51.0478 657.497 35.1024C742.484 19.157 830.331 30.2576 908.68 66.8423C987.029 103.427 1051.94 163.655 1094.27 239.052C1171.92 212.174 1255.81 209.033 1335.25 230.03C1414.68 251.027 1486.07 295.21 1540.29 356.943C1594.51 418.677 1629.12 495.162 1639.7 576.645C1650.27 658.127 1636.34 740.913 1599.67 814.443C1578.15 880.881 1536.14 938.794 1479.66 979.869C1423.18 1020.95 1355.14 1043.07 1285.31 1043.07H1229.77Z" fill="url(#paint0_linear_7_11259)"/>
<path d="M1285.31 1038.48C1320.77 1038.48 1355.63 1032.82 1388.93 1021.65C1421.13 1010.85 1451.36 995.096 1478.78 974.817C1505.89 954.771 1529.65 930.758 1549.4 903.445C1569.4 875.792 1584.84 845.372 1595.3 813.029L1595.4 812.698L1595.56 812.386C1609.46 784.61 1620.16 755.226 1627.37 725.051C1634.79 693.999 1638.55 661.916 1638.55 629.693C1638.55 601.955 1635.76 574.235 1630.25 547.304C1624.88 521.06 1616.87 495.245 1606.43 470.578C1596.19 446.356 1583.51 422.995 1568.74 401.141C1554.12 379.495 1537.32 359.139 1518.82 340.639C1500.32 322.139 1479.97 305.344 1458.32 290.72C1436.47 275.956 1413.11 263.275 1388.89 253.031C1364.22 242.597 1338.4 234.583 1312.16 229.213C1285.23 223.702 1257.51 220.908 1229.77 220.908C1183.84 220.908 1138.76 228.466 1095.77 243.374L1092.15 244.632L1090.27 241.286C1055.29 179.087 1004.4 126.851 943.121 90.2266C912.129 71.7046 878.832 57.3914 844.156 47.6848C808.383 37.6706 771.225 32.5931 733.714 32.5931C683.26 32.5931 634.009 41.6736 587.329 59.5823C542.234 76.8828 500.866 101.874 464.375 133.862C428.093 165.665 397.983 203.191 374.883 245.395C351.216 288.636 335.747 335.311 328.906 384.125L328.394 387.779L324.716 388.067C283.57 391.287 243.983 402.121 207.053 420.265C171.17 437.896 139.128 461.742 111.817 491.142C55.6976 551.552 24.7913 630.262 24.7913 712.77C24.7913 756.742 33.4023 799.397 50.3853 839.549C58.5481 858.847 68.6514 877.461 80.4148 894.873C92.0672 912.121 105.449 928.34 120.189 943.08C134.93 957.821 151.149 971.203 168.397 982.855C185.809 994.619 204.423 1004.72 223.721 1012.88C263.873 1029.87 306.528 1038.48 350.5 1038.48H1229.77H1285.31ZM1285.31 1043.07H1229.77H350.5C168.08 1043.07 20.1982 895.19 20.1982 712.77C20.1982 539.146 154.154 396.81 324.357 383.488C352.511 182.591 525.057 28 733.714 28C888.511 28 1023.43 113.079 1094.27 239.034C1136.72 224.312 1182.31 216.315 1229.77 216.315C1458.07 216.315 1643.15 401.393 1643.15 629.693C1643.15 696.092 1627.49 758.846 1599.67 814.442C1556.79 947.116 1432.26 1043.07 1285.31 1043.07Z" fill="white" fill-opacity="0.5"/>
</g>
</g>
<defs>
<filter id="filter0_f_7_11259" x="16.1982" y="24" width="1630.95" height="1460.16" filterUnits="userSpaceOnUse" color-interpolation-filters="sRGB">
<feFlood flood-opacity="0" result="BackgroundImageFix"/>
<feBlend mode="normal" in="SourceGraphic" in2="BackgroundImageFix" result="shape"/>
<feGaussianBlur stdDeviation="2" result="effect1_foregroundBlur_7_11259"/>
</filter>
<filter id="filter1_d_7_11259" x="0.198242" y="0" width="1682.95" height="1075.07" filterUnits="userSpaceOnUse" color-interpolation-filters="sRGB">
<feFlood flood-opacity="0" result="BackgroundImageFix"/>
<feColorMatrix in="SourceAlpha" type="matrix" values="0 0 0 0 0 0 0 0 0 0 0 0 0 0 0 0 0 0 127 0" result="hardAlpha"/>
<feOffset dx="10" dy="2"/>
<feGaussianBlur stdDeviation="15"/>
<feColorMatrix type="matrix" values="0 0 0 0 0.258824 0 0 0 0 0.627451 0 0 0 0 0.941176 0 0 0 0.596 0"/>
<feBlend mode="normal" in2="BackgroundImageFix" result="effect1_dropShadow_7_11259"/>
<feBlend mode="normal" in="SourceGraphic" in2="effect1_dropShadow_7_11259" result="shape"/>
</filter>
<linearGradient id="paint0_linear_7_11259" x1="831.788" y1="28.0112" x2="1303.24" y2="1167.85" gradientUnits="userSpaceOnUse">
<stop stop-color="white" stop-opacity="0.604"/>
<stop offset="1" stop-color="white" stop-opacity="0.2"/>
</linearGradient>
</defs>
</svg>
