<svg width="1861" height="1707" viewBox="0 0 1861 1707" fill="none" xmlns="http://www.w3.org/2000/svg">
<g filter="url(#filter0_f_7_1499)">
<path d="M1078.43 596.186C941.99 491.229 762.657 480.202 620.145 612.256C477.633 744.309 524.787 887.44 524.787 887.44" stroke="#9832E1" stroke-width="14.0073" stroke-linecap="round"/>
<path d="M1154.52 585.687C1070.56 509.594 955.309 399.181 737.108 463.616C518.906 528.051 411.955 739.518 459.186 908.429" stroke="#486BF3" stroke-width="14" stroke-linecap="round" stroke-linejoin="round"/>
<path d="M1230.61 575.195C1099.42 378.401 829.661 314.276 607.343 450.815C385.025 587.354 364.722 764.117 388.338 916.305" stroke="#74D248" stroke-width="14.0028" stroke-linecap="round"/>
<path d="M1306.57 568.471C1149.06 318.16 818.458 242.93 568.147 400.441C317.835 557.952 283.383 787.731 320.118 929.422" stroke="#EDF000" stroke-width="14.0056" stroke-linecap="round"/>
<path d="M1377.56 577.818C1251.61 304.93 898.833 183.69 604.637 320.876C310.441 458.062 194.173 709.013 265.019 974.028" stroke="#F18431" stroke-width="14" stroke-linecap="round"/>
<path d="M1448.4 609.306C1338.7 271.661 991.985 132.473 654.34 242.181C316.696 351.888 97.5825 667.874 207.29 1005.52" stroke="#DD3930" stroke-width="13" stroke-linecap="round"/>
</g>
<g filter="url(#filter1_df_7_1499)">
<g filter="url(#filter2_d_7_1499)">
<path d="M1213.79 1658.04C1203.64 1658.85 1193.4 1659.27 1183.05 1659.27H461.351C411.674 1659.46 362.449 1649.83 316.499 1630.95C270.55 1612.07 228.781 1584.3 193.588 1549.24C158.396 1514.18 130.471 1472.51 111.418 1426.63C92.3643 1380.75 82.5562 1331.56 82.5562 1281.89C82.5562 1232.21 92.3643 1183.02 111.418 1137.14C130.471 1091.26 158.396 1049.6 193.588 1014.54C228.781 979.475 270.55 951.707 316.499 932.824C362.449 913.942 411.674 904.317 461.351 904.502H730.439C817.679 712.563 1018.6 578.218 1252.51 578.218C1566.48 578.218 1821 820.222 1821 1118.75C1821 1417.27 1566.48 1659.27 1252.51 1659.27C1239.5 1659.27 1226.59 1658.86 1213.79 1658.04Z" fill="url(#paint0_linear_7_1499)"/>
<path d="M1252.51 1654.02C1290.75 1654.02 1328.96 1650.36 1366.08 1643.14C1402.26 1636.1 1437.84 1625.6 1471.84 1611.93C1505.22 1598.5 1537.41 1581.89 1567.52 1562.54C1597.35 1543.38 1625.39 1521.38 1650.88 1497.15C1676.36 1472.92 1699.49 1446.27 1719.63 1417.92C1739.96 1389.31 1757.42 1358.72 1771.53 1327.01C1785.89 1294.72 1796.93 1260.93 1804.32 1226.57C1811.91 1191.33 1815.75 1155.05 1815.75 1118.74C1815.75 1082.44 1811.91 1046.16 1804.32 1010.91C1796.93 976.562 1785.89 942.771 1771.53 910.481C1757.42 878.77 1739.96 848.184 1719.63 819.571C1699.49 791.224 1676.36 764.566 1650.88 740.339C1625.39 716.106 1597.35 694.106 1567.52 674.948C1537.41 655.603 1505.22 638.989 1471.84 625.565C1437.84 611.891 1402.26 601.389 1366.08 594.351C1328.96 587.128 1290.75 583.466 1252.51 583.466C1140.36 583.466 1032.05 614.703 939.291 673.8C894.577 702.286 854.396 736.671 819.866 775.998C785.117 815.573 756.636 859.539 735.215 906.672L733.817 909.749H730.437H461.351C411.111 909.749 362.376 919.587 316.5 938.991C294.451 948.317 273.183 959.861 253.289 973.301C233.583 986.615 215.052 1001.9 198.21 1018.75C181.369 1035.59 166.079 1054.12 152.766 1073.82C139.325 1093.72 127.782 1114.99 118.456 1137.04C99.0518 1182.91 89.2132 1231.65 89.2132 1281.89C89.2132 1332.13 99.0518 1380.86 118.456 1426.74C127.782 1448.79 139.325 1470.05 152.766 1489.95C166.079 1509.66 181.369 1528.19 198.21 1545.03C215.052 1561.87 233.583 1577.16 253.289 1590.47C273.183 1603.91 294.451 1615.46 316.5 1624.78C362.376 1644.19 411.111 1654.02 461.351 1654.02H1183.06C1193.15 1654.02 1203.35 1653.62 1213.37 1652.81L1213.75 1652.78L1214.13 1652.8C1226.83 1653.61 1239.74 1654.02 1252.51 1654.02ZM1252.51 1659.27C1239.5 1659.27 1226.59 1658.86 1213.79 1658.04C1203.66 1658.85 1193.4 1659.27 1183.06 1659.27H461.351C252.928 1659.27 83.9653 1490.31 83.9653 1281.89C83.9653 1073.46 252.928 904.501 461.351 904.501H730.437C817.68 712.539 1018.59 578.218 1252.51 578.218C1566.48 578.218 1821 820.223 1821 1118.74C1821 1417.27 1566.48 1659.27 1252.51 1659.27Z" fill="white" fill-opacity="0.5"/>
</g>
</g>
<defs>
<filter id="filter0_f_7_1499" x="168.246" y="194.873" width="1290.66" height="821.147" filterUnits="userSpaceOnUse" color-interpolation-filters="sRGB">
<feFlood flood-opacity="0" result="BackgroundImageFix"/>
<feBlend mode="normal" in="SourceGraphic" in2="BackgroundImageFix" result="shape"/>
<feGaussianBlur stdDeviation="2" result="effect1_foregroundBlur_7_1499"/>
</filter>
<filter id="filter1_df_7_1499" x="62.5562" y="550.218" width="1798.44" height="1141.06" filterUnits="userSpaceOnUse" color-interpolation-filters="sRGB">
<feFlood flood-opacity="0" result="BackgroundImageFix"/>
<feColorMatrix in="SourceAlpha" type="matrix" values="0 0 0 0 0 0 0 0 0 0 0 0 0 0 0 0 0 0 127 0" result="hardAlpha"/>
<feOffset dx="10" dy="2"/>
<feGaussianBlur stdDeviation="15"/>
<feColorMatrix type="matrix" values="0 0 0 0 0.258824 0 0 0 0 0.627451 0 0 0 0 0.941176 0 0 0 0.596 0"/>
<feBlend mode="normal" in2="BackgroundImageFix" result="effect1_dropShadow_7_1499"/>
<feBlend mode="normal" in="SourceGraphic" in2="effect1_dropShadow_7_1499" result="shape"/>
<feGaussianBlur stdDeviation="2" result="effect2_foregroundBlur_7_1499"/>
</filter>
<filter id="filter2_d_7_1499" x="62.5562" y="550.218" width="1798.44" height="1141.06" filterUnits="userSpaceOnUse" color-interpolation-filters="sRGB">
<feFlood flood-opacity="0" result="BackgroundImageFix"/>
<feColorMatrix in="SourceAlpha" type="matrix" values="0 0 0 0 0 0 0 0 0 0 0 0 0 0 0 0 0 0 127 0" result="hardAlpha"/>
<feOffset dx="10" dy="2"/>
<feGaussianBlur stdDeviation="15"/>
<feColorMatrix type="matrix" values="0 0 0 0 0.501961 0 0 0 0 0.501961 0 0 0 0 0.501961 0 0 0 0.302 0"/>
<feBlend mode="normal" in2="BackgroundImageFix" result="effect1_dropShadow_7_1499"/>
<feBlend mode="normal" in="SourceGraphic" in2="effect1_dropShadow_7_1499" result="shape"/>
</filter>
<linearGradient id="paint0_linear_7_1499" x1="786.625" y1="714.431" x2="1133.2" y2="1717.88" gradientUnits="userSpaceOnUse">
<stop stop-color="white" stop-opacity="0.596"/>
<stop offset="1" stop-color="#F7F7F7" stop-opacity="0.204"/>
</linearGradient>
</defs>
</svg>
