<svg width="809" height="642" viewBox="0 0 809 642" fill="none" xmlns="http://www.w3.org/2000/svg">
<g filter="url(#filter0_f_7_11030)">
<path d="M592.777 524.276V635.761" stroke="#42A0F0" stroke-width="4" stroke-linecap="round"/>
<path d="M592.553 551.528L611.753 531.709" stroke="#42A0F0" stroke-width="4" stroke-linecap="round"/>
<path d="M592.553 551.528L572.734 531.709" stroke="#42A0F0" stroke-width="4" stroke-linecap="round"/>
<path d="M592.553 610.987L611.753 630.805" stroke="#42A0F0" stroke-width="4" stroke-linecap="round"/>
<path d="M592.553 610.987L572.734 630.805" stroke="#42A0F0" stroke-width="4" stroke-linecap="round"/>
<path d="M640.786 552.61L544.238 608.352" stroke="#42A0F0" stroke-width="4" stroke-linecap="round"/>
<path d="M617.074 566.041L643.838 572.759" stroke="#42A0F0" stroke-width="4" stroke-linecap="round"/>
<path d="M617.074 566.04L624.328 538.967" stroke="#42A0F0" stroke-width="4" stroke-linecap="round"/>
<path d="M565.581 595.77L558.017 622.307" stroke="#42A0F0" stroke-width="4" stroke-linecap="round"/>
<path d="M565.581 595.77L538.508 588.516" stroke="#42A0F0" stroke-width="4" stroke-linecap="round"/>
<path d="M640.253 608.352L543.704 552.61" stroke="#42A0F0" stroke-width="4" stroke-linecap="round"/>
<path d="M616.764 594.532L624.328 621.07" stroke="#42A0F0" stroke-width="4" stroke-linecap="round"/>
<path d="M616.764 594.532L643.838 587.278" stroke="#42A0F0" stroke-width="4" stroke-linecap="round"/>
<path d="M565.271 564.803L538.508 571.521" stroke="#42A0F0" stroke-width="4" stroke-linecap="round"/>
<path d="M565.271 564.803L558.017 537.729" stroke="#42A0F0" stroke-width="4" stroke-linecap="round"/>
<path d="M395.383 524.276V635.761" stroke="#42A0F0" stroke-width="4" stroke-linecap="round"/>
<path d="M395.159 551.528L414.359 531.709" stroke="#42A0F0" stroke-width="4" stroke-linecap="round"/>
<path d="M395.159 551.528L375.34 531.709" stroke="#42A0F0" stroke-width="4" stroke-linecap="round"/>
<path d="M395.159 610.987L414.359 630.805" stroke="#42A0F0" stroke-width="4" stroke-linecap="round"/>
<path d="M395.159 610.987L375.34 630.805" stroke="#42A0F0" stroke-width="4" stroke-linecap="round"/>
<path d="M443.392 552.61L346.843 608.352" stroke="#42A0F0" stroke-width="4" stroke-linecap="round"/>
<path d="M419.679 566.041L446.443 572.759" stroke="#42A0F0" stroke-width="4" stroke-linecap="round"/>
<path d="M419.679 566.04L426.934 538.967" stroke="#42A0F0" stroke-width="4" stroke-linecap="round"/>
<path d="M368.187 595.77L360.623 622.307" stroke="#42A0F0" stroke-width="4" stroke-linecap="round"/>
<path d="M368.187 595.77L341.113 588.516" stroke="#42A0F0" stroke-width="4" stroke-linecap="round"/>
<path d="M442.858 608.352L346.31 552.61" stroke="#42A0F0" stroke-width="4" stroke-linecap="round"/>
<path d="M419.37 594.532L426.934 621.07" stroke="#42A0F0" stroke-width="4" stroke-linecap="round"/>
<path d="M419.37 594.532L446.443 587.278" stroke="#42A0F0" stroke-width="4" stroke-linecap="round"/>
<path d="M367.877 564.803L341.114 571.521" stroke="#42A0F0" stroke-width="4" stroke-linecap="round"/>
<path d="M367.877 564.803L360.623 537.729" stroke="#42A0F0" stroke-width="4" stroke-linecap="round"/>
<path d="M198.338 524.276V635.761" stroke="#42A0F0" stroke-width="4" stroke-linecap="round"/>
<path d="M198.114 551.528L217.314 531.709" stroke="#42A0F0" stroke-width="4" stroke-linecap="round"/>
<path d="M198.114 551.528L178.295 531.709" stroke="#42A0F0" stroke-width="4" stroke-linecap="round"/>
<path d="M198.114 610.987L217.314 630.805" stroke="#42A0F0" stroke-width="4" stroke-linecap="round"/>
<path d="M198.114 610.987L178.295 630.805" stroke="#42A0F0" stroke-width="4" stroke-linecap="round"/>
<path d="M246.347 552.61L149.799 608.352" stroke="#42A0F0" stroke-width="4" stroke-linecap="round"/>
<path d="M222.635 566.041L249.398 572.759" stroke="#42A0F0" stroke-width="4" stroke-linecap="round"/>
<path d="M222.635 566.04L229.889 538.967" stroke="#42A0F0" stroke-width="4" stroke-linecap="round"/>
<path d="M171.142 595.77L163.578 622.307" stroke="#42A0F0" stroke-width="4" stroke-linecap="round"/>
<path d="M171.142 595.77L144.069 588.516" stroke="#42A0F0" stroke-width="4" stroke-linecap="round"/>
<path d="M245.814 608.352L149.265 552.61" stroke="#42A0F0" stroke-width="4" stroke-linecap="round"/>
<path d="M222.325 594.532L229.889 621.07" stroke="#42A0F0" stroke-width="4" stroke-linecap="round"/>
<path d="M222.325 594.532L249.398 587.278" stroke="#42A0F0" stroke-width="4" stroke-linecap="round"/>
<path d="M170.832 564.803L144.069 571.521" stroke="#42A0F0" stroke-width="4" stroke-linecap="round"/>
<path d="M170.832 564.803L163.578 537.729" stroke="#42A0F0" stroke-width="4" stroke-linecap="round"/>
<path d="M293.683 356.894V468.379" stroke="#42A0F0" stroke-width="4" stroke-linecap="round"/>
<path d="M293.458 384.146L312.658 364.327" stroke="#42A0F0" stroke-width="4" stroke-linecap="round"/>
<path d="M293.458 384.146L273.639 364.327" stroke="#42A0F0" stroke-width="4" stroke-linecap="round"/>
<path d="M293.458 443.604L312.658 463.423" stroke="#42A0F0" stroke-width="4" stroke-linecap="round"/>
<path d="M293.458 443.604L273.639 463.423" stroke="#42A0F0" stroke-width="4" stroke-linecap="round"/>
<path d="M341.692 385.227L245.143 440.97" stroke="#42A0F0" stroke-width="4" stroke-linecap="round"/>
<path d="M317.979 398.658L344.743 405.377" stroke="#42A0F0" stroke-width="4" stroke-linecap="round"/>
<path d="M317.979 398.658L325.233 371.585" stroke="#42A0F0" stroke-width="4" stroke-linecap="round"/>
<path d="M266.486 428.388L258.923 454.925" stroke="#42A0F0" stroke-width="4" stroke-linecap="round"/>
<path d="M266.486 428.388L239.413 421.134" stroke="#42A0F0" stroke-width="4" stroke-linecap="round"/>
<path d="M341.158 440.97L244.609 385.227" stroke="#42A0F0" stroke-width="4" stroke-linecap="round"/>
<path d="M317.67 427.15L325.233 453.687" stroke="#42A0F0" stroke-width="4" stroke-linecap="round"/>
<path d="M317.67 427.15L344.743 419.896" stroke="#42A0F0" stroke-width="4" stroke-linecap="round"/>
<path d="M266.177 397.421L239.413 404.139" stroke="#42A0F0" stroke-width="4" stroke-linecap="round"/>
<path d="M266.177 397.421L258.923 370.347" stroke="#42A0F0" stroke-width="4" stroke-linecap="round"/>
<path d="M511.915 356.894V468.379" stroke="#42A0F0" stroke-width="4" stroke-linecap="round"/>
<path d="M511.69 384.146L530.891 364.327" stroke="#42A0F0" stroke-width="4" stroke-linecap="round"/>
<path d="M511.69 384.146L491.872 364.327" stroke="#42A0F0" stroke-width="4" stroke-linecap="round"/>
<path d="M511.69 443.604L530.891 463.423" stroke="#42A0F0" stroke-width="4" stroke-linecap="round"/>
<path d="M511.69 443.604L491.872 463.423" stroke="#42A0F0" stroke-width="4" stroke-linecap="round"/>
<path d="M559.924 385.227L463.375 440.97" stroke="#42A0F0" stroke-width="4" stroke-linecap="round"/>
<path d="M536.211 398.658L562.975 405.377" stroke="#42A0F0" stroke-width="4" stroke-linecap="round"/>
<path d="M536.211 398.658L543.466 371.585" stroke="#42A0F0" stroke-width="4" stroke-linecap="round"/>
<path d="M484.719 428.388L477.155 454.925" stroke="#42A0F0" stroke-width="4" stroke-linecap="round"/>
<path d="M484.719 428.388L457.645 421.134" stroke="#42A0F0" stroke-width="4" stroke-linecap="round"/>
<path d="M559.39 440.97L462.841 385.227" stroke="#42A0F0" stroke-width="4" stroke-linecap="round"/>
<path d="M535.902 427.15L543.466 453.687" stroke="#42A0F0" stroke-width="4" stroke-linecap="round"/>
<path d="M535.902 427.15L562.975 419.896" stroke="#42A0F0" stroke-width="4" stroke-linecap="round"/>
<path d="M484.409 397.421L457.645 404.139" stroke="#42A0F0" stroke-width="4" stroke-linecap="round"/>
<path d="M484.409 397.421L477.155 370.347" stroke="#42A0F0" stroke-width="4" stroke-linecap="round"/>
<g filter="url(#filter1_d_7_11030)">
<path d="M578.311 496.984H172.712C133.366 496.954 95.5562 481.705 67.1989 454.429C38.8416 427.152 22.1351 389.964 20.5767 350.648C19.0183 311.333 32.7289 272.939 58.8383 243.504C84.9477 214.068 121.431 195.874 160.652 192.73C166.245 153.236 184.079 116.49 211.646 87.6605C239.212 58.8312 275.123 39.3698 314.327 32.0143C353.531 24.6588 394.054 29.7794 430.196 46.6557C466.337 63.5319 496.279 91.3146 515.807 126.095C551.624 113.696 590.323 112.247 626.967 121.933C663.611 131.619 696.54 152 721.553 180.477C746.566 208.954 762.53 244.237 767.408 281.824C772.286 319.411 765.858 357.6 748.943 391.519C739.017 422.166 719.637 448.881 693.584 467.828C667.531 486.776 636.145 496.983 603.931 496.984H578.311Z" fill="url(#paint0_linear_7_11030)"/>
<path d="M603.931 494.865C620.288 494.865 636.37 492.253 651.731 487.102C666.586 482.121 680.531 474.852 693.18 465.498C705.684 456.251 716.644 445.174 725.757 432.575C734.983 419.818 742.106 405.786 746.927 390.866L746.977 390.713L747.048 390.57C753.46 377.757 758.397 364.202 761.723 350.283C765.146 335.959 766.881 321.159 766.881 306.295C766.881 293.499 765.592 280.712 763.05 268.289C760.573 256.183 756.877 244.275 752.064 232.896C747.338 221.723 741.488 210.946 734.678 200.865C727.932 190.88 720.185 181.49 711.651 172.956C703.117 164.422 693.727 156.675 683.742 149.929C673.661 143.118 662.884 137.269 651.711 132.543C640.332 127.73 628.424 124.033 616.317 121.556C603.894 119.014 591.107 117.725 578.311 117.725C557.125 117.725 536.329 121.212 516.501 128.088L514.828 128.669L513.96 127.125C497.824 98.4332 474.352 74.3373 446.083 57.4427C431.787 48.8986 416.427 42.2961 400.431 37.8185C383.929 33.199 366.789 30.8568 349.485 30.8568C326.211 30.8568 303.492 35.0456 281.959 43.3067C261.157 51.2873 242.074 62.8156 225.241 77.5712C208.504 92.242 194.615 109.552 183.959 129.021C173.041 148.967 165.906 170.499 162.75 193.016L162.514 194.701L160.817 194.834C141.837 196.32 123.576 201.317 106.54 209.687C89.9878 217.82 75.2069 228.82 62.6084 242.382C36.7211 270.249 22.4642 306.557 22.4642 344.617C22.4642 364.901 26.4364 384.578 34.2705 403.1C38.036 412.002 42.6966 420.588 48.1229 428.62C53.4981 436.577 59.6712 444.058 66.4707 450.858C73.2702 457.658 80.7521 463.831 88.7084 469.206C96.7405 474.632 105.327 479.293 114.229 483.058C132.751 490.892 152.427 494.865 172.711 494.865H578.311H603.931ZM603.931 496.983H578.311H172.711C88.5624 496.983 20.3455 428.766 20.3455 344.617C20.3455 264.526 82.1384 198.868 160.652 192.722C173.639 100.05 253.233 28.738 349.485 28.738C420.892 28.738 483.13 67.9843 515.806 126.087C535.388 119.295 556.418 115.606 578.311 115.606C683.627 115.606 769 200.981 769 306.295C769 336.924 761.776 365.872 748.943 391.518C729.164 452.719 671.718 496.983 603.931 496.983Z" fill="white" fill-opacity="0.5"/>
</g>
</g>
<defs>
<filter id="filter0_f_7_11030" x="16.3455" y="24.738" width="756.655" height="617.023" filterUnits="userSpaceOnUse" color-interpolation-filters="sRGB">
<feFlood flood-opacity="0" result="BackgroundImageFix"/>
<feBlend mode="normal" in="SourceGraphic" in2="BackgroundImageFix" result="shape"/>
<feGaussianBlur stdDeviation="2" result="effect1_foregroundBlur_7_11030"/>
</filter>
<filter id="filter1_d_7_11030" x="0.345459" y="0.738037" width="808.655" height="528.246" filterUnits="userSpaceOnUse" color-interpolation-filters="sRGB">
<feFlood flood-opacity="0" result="BackgroundImageFix"/>
<feColorMatrix in="SourceAlpha" type="matrix" values="0 0 0 0 0 0 0 0 0 0 0 0 0 0 0 0 0 0 127 0" result="hardAlpha"/>
<feOffset dx="10" dy="2"/>
<feGaussianBlur stdDeviation="15"/>
<feColorMatrix type="matrix" values="0 0 0 0 0.258824 0 0 0 0 0.627451 0 0 0 0 0.941176 0 0 0 0.596 0"/>
<feBlend mode="normal" in2="BackgroundImageFix" result="effect1_dropShadow_7_11030"/>
<feBlend mode="normal" in="SourceGraphic" in2="effect1_dropShadow_7_11030" result="shape"/>
</filter>
<linearGradient id="paint0_linear_7_11030" x1="394.726" y1="28.7432" x2="612.201" y2="554.543" gradientUnits="userSpaceOnUse">
<stop stop-color="white" stop-opacity="0.604"/>
<stop offset="1" stop-color="white" stop-opacity="0.2"/>
</linearGradient>
</defs>
</svg>
